<mxfile modified="2020-07-24T06:37:18.398Z" host="app.diagrams.net" agent="5.0 (Windows NT 10.0; WOW64) AppleWebKit/537.36 (KHTML, like Gecko) Chrome/84.0.4147.89 Safari/537.36" etag="G22YCn9qdZ9IHBXvhW6v" version="13.5.1" type="github">
  <diagram id="Ht1M8jgEwFfnCIfOTk4-" name="Page-1">
    <mxGraphModel dx="2076" dy="1168" grid="1" gridSize="10" guides="1" tooltips="1" connect="1" arrows="1" fold="1" page="1" pageScale="1" pageWidth="827" pageHeight="1169" math="0" shadow="0">
      <root>
        <mxCell id="0" />
        <mxCell id="1" parent="0" />
        <mxCell id="IyRs7n4xf-Tw-_JyTJ-p-70" value="" style="ellipse;whiteSpace=wrap;html=1;rotation=90;" vertex="1" parent="1">
          <mxGeometry x="1007.13" y="96.88" width="15.75" height="41" as="geometry" />
        </mxCell>
        <mxCell id="IyRs7n4xf-Tw-_JyTJ-p-65" value="" style="ellipse;whiteSpace=wrap;html=1;" vertex="1" parent="1">
          <mxGeometry x="1100" y="58" width="20" height="36" as="geometry" />
        </mxCell>
        <mxCell id="IyRs7n4xf-Tw-_JyTJ-p-64" value="" style="whiteSpace=wrap;html=1;" vertex="1" parent="1">
          <mxGeometry x="21.25" y="140" width="1078.75" height="1011" as="geometry" />
        </mxCell>
        <mxCell id="IyRs7n4xf-Tw-_JyTJ-p-27" value="" style="whiteSpace=wrap;html=1;" vertex="1" parent="1">
          <mxGeometry x="77.5" y="246" width="235" height="100" as="geometry" />
        </mxCell>
        <mxCell id="IyRs7n4xf-Tw-_JyTJ-p-17" style="edgeStyle=none;shape=link;rounded=0;orthogonalLoop=1;jettySize=auto;html=1;entryX=0.025;entryY=0.575;entryDx=0;entryDy=0;entryPerimeter=0;" edge="1" parent="1" target="IyRs7n4xf-Tw-_JyTJ-p-13">
          <mxGeometry relative="1" as="geometry">
            <mxPoint x="1050" y="76" as="sourcePoint" />
          </mxGeometry>
        </mxCell>
        <mxCell id="IyRs7n4xf-Tw-_JyTJ-p-3" value="" style="points=[[0.015,0.015,0],[0.985,0.015,0],[0.985,0.985,0],[0.015,0.985,0],[0.25,0,0],[0.5,0,0],[0.75,0,0],[1,0.25,0],[1,0.5,0],[1,0.75,0],[0.75,1,0],[0.5,1,0],[0.25,1,0],[0,0.75,0],[0,0.5,0],[0,0.25,0]];verticalLabelPosition=bottom;html=1;verticalAlign=top;aspect=fixed;align=center;pointerEvents=1;shape=mxgraph.cisco19.rect;prIcon=l3_switch;fillColor=#FAFAFA;strokeColor=#005073;" vertex="1" parent="1">
          <mxGeometry x="980" y="23" width="70" height="70" as="geometry" />
        </mxCell>
        <mxCell id="IyRs7n4xf-Tw-_JyTJ-p-12" style="edgeStyle=none;shape=link;rounded=0;orthogonalLoop=1;jettySize=auto;html=1;exitX=0.473;exitY=0.01;exitDx=0;exitDy=0;exitPerimeter=0;entryX=0.5;entryY=1;entryDx=0;entryDy=0;entryPerimeter=0;" edge="1" parent="1" source="IyRs7n4xf-Tw-_JyTJ-p-68" target="IyRs7n4xf-Tw-_JyTJ-p-3">
          <mxGeometry relative="1" as="geometry">
            <mxPoint x="1015" y="133" as="sourcePoint" />
          </mxGeometry>
        </mxCell>
        <mxCell id="IyRs7n4xf-Tw-_JyTJ-p-13" value="" style="points=[[0.015,0.015,0],[0.985,0.015,0],[0.985,0.985,0],[0.015,0.985,0],[0.25,0,0],[0.5,0,0],[0.75,0,0],[1,0.25,0],[1,0.5,0],[1,0.75,0],[0.75,1,0],[0.5,1,0],[0.25,1,0],[0,0.75,0],[0,0.5,0],[0,0.25,0]];verticalLabelPosition=bottom;html=1;verticalAlign=top;aspect=fixed;align=center;pointerEvents=1;shape=mxgraph.cisco19.rect;prIcon=6500_vss;fillColor=#FAFAFA;strokeColor=#005073;" vertex="1" parent="1">
          <mxGeometry x="1180" y="15.4" width="71.64" height="104.6" as="geometry" />
        </mxCell>
        <mxCell id="IyRs7n4xf-Tw-_JyTJ-p-34" value="" style="whiteSpace=wrap;html=1;" vertex="1" parent="1">
          <mxGeometry x="77.5" y="346" width="235" height="100" as="geometry" />
        </mxCell>
        <mxCell id="IyRs7n4xf-Tw-_JyTJ-p-37" value="" style="whiteSpace=wrap;html=1;" vertex="1" parent="1">
          <mxGeometry x="580" y="246" width="235" height="100" as="geometry" />
        </mxCell>
        <mxCell id="IyRs7n4xf-Tw-_JyTJ-p-39" value="" style="whiteSpace=wrap;html=1;" vertex="1" parent="1">
          <mxGeometry x="815" y="246" width="235" height="100" as="geometry" />
        </mxCell>
        <mxCell id="IyRs7n4xf-Tw-_JyTJ-p-41" value="" style="whiteSpace=wrap;html=1;" vertex="1" parent="1">
          <mxGeometry x="580" y="346" width="235" height="100" as="geometry" />
        </mxCell>
        <mxCell id="IyRs7n4xf-Tw-_JyTJ-p-43" value="" style="whiteSpace=wrap;html=1;" vertex="1" parent="1">
          <mxGeometry x="815" y="346" width="235" height="100" as="geometry" />
        </mxCell>
        <mxCell id="IyRs7n4xf-Tw-_JyTJ-p-45" value="" style="whiteSpace=wrap;html=1;" vertex="1" parent="1">
          <mxGeometry x="580" y="520" width="235" height="100" as="geometry" />
        </mxCell>
        <mxCell id="IyRs7n4xf-Tw-_JyTJ-p-47" value="" style="whiteSpace=wrap;html=1;" vertex="1" parent="1">
          <mxGeometry x="815" y="520" width="235" height="100" as="geometry" />
        </mxCell>
        <mxCell id="IyRs7n4xf-Tw-_JyTJ-p-49" value="" style="whiteSpace=wrap;html=1;" vertex="1" parent="1">
          <mxGeometry x="580" y="620" width="235" height="100" as="geometry" />
        </mxCell>
        <mxCell id="IyRs7n4xf-Tw-_JyTJ-p-51" value="" style="whiteSpace=wrap;html=1;" vertex="1" parent="1">
          <mxGeometry x="815" y="620" width="235" height="100" as="geometry" />
        </mxCell>
        <mxCell id="IyRs7n4xf-Tw-_JyTJ-p-53" value="" style="whiteSpace=wrap;html=1;" vertex="1" parent="1">
          <mxGeometry x="580" y="790" width="235" height="100" as="geometry" />
        </mxCell>
        <mxCell id="IyRs7n4xf-Tw-_JyTJ-p-55" value="" style="whiteSpace=wrap;html=1;" vertex="1" parent="1">
          <mxGeometry x="815" y="790" width="235" height="100" as="geometry" />
        </mxCell>
        <mxCell id="IyRs7n4xf-Tw-_JyTJ-p-57" value="" style="whiteSpace=wrap;html=1;" vertex="1" parent="1">
          <mxGeometry x="77.5" y="520" width="235" height="100" as="geometry" />
        </mxCell>
        <mxCell id="IyRs7n4xf-Tw-_JyTJ-p-59" value="" style="whiteSpace=wrap;html=1;" vertex="1" parent="1">
          <mxGeometry x="77.5" y="620" width="235" height="100" as="geometry" />
        </mxCell>
        <mxCell id="IyRs7n4xf-Tw-_JyTJ-p-62" value="" style="whiteSpace=wrap;html=1;" vertex="1" parent="1">
          <mxGeometry x="77.5" y="790" width="235" height="100" as="geometry" />
        </mxCell>
        <mxCell id="IyRs7n4xf-Tw-_JyTJ-p-68" value="" style="points=[[0.015,0.015,0],[0.985,0.015,0],[0.985,0.985,0],[0.015,0.985,0],[0.25,0,0],[0.5,0,0],[0.75,0,0],[1,0.25,0],[1,0.5,0],[1,0.75,0],[0.75,1,0],[0.5,1,0],[0.25,1,0],[0,0.75,0],[0,0.5,0],[0,0.25,0]];verticalLabelPosition=bottom;html=1;verticalAlign=top;aspect=fixed;align=center;pointerEvents=1;shape=mxgraph.cisco19.rect;prIcon=l2_switch;fillColor=#FAFAFA;strokeColor=#005073;" vertex="1" parent="1">
          <mxGeometry x="982" y="150" width="70" height="70" as="geometry" />
        </mxCell>
        <mxCell id="IyRs7n4xf-Tw-_JyTJ-p-69" style="edgeStyle=none;shape=link;rounded=0;orthogonalLoop=1;jettySize=auto;html=1;exitX=0;exitY=0.5;exitDx=0;exitDy=0;" edge="1" parent="1" source="IyRs7n4xf-Tw-_JyTJ-p-64" target="IyRs7n4xf-Tw-_JyTJ-p-64">
          <mxGeometry relative="1" as="geometry" />
        </mxCell>
        <mxCell id="IyRs7n4xf-Tw-_JyTJ-p-77" value="" style="shape=image;verticalLabelPosition=bottom;labelBackgroundColor=#ffffff;verticalAlign=top;aspect=fixed;imageAspect=0;image=data:image/png,iVBORw0KGgoAAAANSUhEUgAAAFcAAABTCAYAAADqWZt6AAAOP0lEQVR4Ae2cV4xUxxKGV0IChBBBIssEiRwFNsFkXgBjrnSxRM45g58JFjwgIXiweDDRNtgGGzA52uSMyRlsosFkMDkn19V/rv5xbU/3CbMz611rRir1mdVqdueb//xVXd09GZJ+pIxARjJfuUKFCpKRkZFro0iRIvLgwYOkIUkqXIDNzQ+I4/fff0/aW0gqjTTczJ9LGq7ikVaugpHsyzTcZBNVr5eGq2Ak+zINN9lE1eul4SoYyb5Mw002UfV6abgKRrIvcwTcbdu2yYQJE+Iit08iypQpI59++mnc+1qxYkVCn2NCk4i+fftKhw4d4v6J3A63dOnS0qlTJ+nXr5/gPSI++ugjadasWfbCnTdvnvcH//rrL2Hkdrhly5aVH3/8UXbs2BGLadOmZT/cuXPnxqCm4dqFnbAtmHDfvXvntRrtfyZ3/DRHKhdg03DjBZTx66+/SqtWrSJFxYoVpWTJkvLee+9liqJFiwoyLgLJIVVRqlQpiRL4X8NE4cKFpUSJEpl+t1ixYt77ad68uZiBROcKVFQZSEzIiHjC2Lp1qwTFli1bhLF582ZhbNq0SXRs3LhREBs2bPDi559/FsZPP/0kiPXr18u6detisXbtWlmzZo2sXr06FqtWrZKVK1cKyiLE8uXLZdmyZbJ06VIvlixZ4iWjxYsXC2LRokWycOFC+eGHH7z4/vvvZcGCBTJ//nwvvvvuO/n222/lm2++8QIcYHVff/21F1999ZV8+eWXXsyZM0cQs2fPllmzZnkxc+ZMYcyYMUOmT5/uxRdffCHt27f3KikPLkoOPpiczJG3Pse3b98K482bN8J4/fq1IF69euXFy5cvBfHixQsvnj9/Ls+ePfPi6dOngnjy5Ik8fvxYHj165MXDhw+95Zb79+/LvXv3vPjzzz/l7t27cufOHbl9+7bcunVLbt68KTdu3JDr16/LtWvX5OrVq/LHH3/IlStX5PLly96qwqVLl+TixYty4cIFOX/+vJw7d07Onj0rv/32m+CuPXPmjJw+fVpOnTolJ0+elBMnTsjx48fl2LFjcvToUTly5IgXhw8flkOHDsnBgwe9OHDggOzfv9+Lffv2yS+//OLF3r17ZcCAAfFwTaD6OaFiJFSOJtgocAE2CC7A5mq4GqR5rcGmGi5UayqXYHOKcqHaSMo1gernfnCpWoymJcAatC3AEkxbMJXrBxeWkExbgCWEsYW9B/fJ5F1z5L/HR0jDG/+Rwi/KSp2HTaTNlR4y/tDnsnXvDrstYAaSJ0+eXLscjllhTowhQ4b8v1pAQtNK5bWpWNMSbKoN8lsq10xmTGjaEpjQaAvJVK1OZkEJDclMJ7Qs2YINqgkWycwGl1WCaQmoFggW1YIJ11YpZBdcVAp+1YIfXFQKgdWCCyh/zsqAow2sTbUswxL1W5RiqVauBmsrxbIEt0+fPt70lSDNkUD1aIMbpFoqV6tWl2G0BGwpMlWbnZWCWefSEljnaluwKbd///5/17k2uCjMOQMzR87GMOrZGK85K+PMjDMyjCj6NVx4rem3Nrjab7NrAsFJhA2unkDQFjCBQPjChULbtm0rdevW9XoOLVu2FEaLFi1ic2zMq5s2bepF48aNBfHhhx9Ko0aNpGHDhtKgQQMv6tevLwj0HMaOHRublWnVwnOpXKjWVK6G6zczw+wM+70Q/8TszApX3/K4BkwokbUr/RSJCVAAAl4IFWHqiTeDqSUyL3wLnzY+Xfyx3bt3y86dO73OvgsuXk/Dpdem2m+DKgVMf6ncMFPfUHChUDRQ+KY56lsWPpgIXHPiEFa1qeop6IRm81sNV/stxENLQG8BYEPBRXsN3SXcZn6BBgluPzRG0BAJo1wTru2Do3L9ElkqGjZR4NqSmRWuzv64hp+i/YZbPEowCeAWwh/HH9O2MGbMGGejRt8VtAM/uGYnTPstOmEIdMKidMMAF++B74OqDVsp7NmzJz6h2eCiL4n2WVYD2RMrqkiQgGtWCKbX2lSbCktIht/SFmgJoeBCeZ999llcjB8/Xlwxbtw40YHkpQNg8YZYemmvNVVL5fpVCaZyE+nhJttv4+D27t07U1WgKwRe6wmCntrqrhenuJwsmNNcll6EG9ZrE1Ftopagm+SwBNoCxKaTmctvQ8M1gfI5gXJqq1cZNFjC1QmMYLVqzbo2SLVZTWRBbcZE/RbWYIVLcH6jhhoWLGZjGi6garDaDhL1WiSyZFtCmPrW5reR4JpAXVBtivUDq5OYORvzqxCiqDZqlRDWElz1LcA64dpA6p/x9ucIoAwuOtIKTLC0A9NnNVibHfj1ERJdjPSrErQlJOK3VrgaonlNmBwJ1KXWMGD97MBVIYRRbdhE5lclRLEEzsyoWl+4BGgbXVBtavWrDFxgbXbgatJEUS2W0f3Wy6LMyoIsIQ5ur169YvsKNFQNk9f69tdQtVrDgPWzA1fpFVTXQrVB+xPCWgJmZGFnZawSABaz0UwtR8AlPNeYCFRWBUxeVGwUsK5NH2ErBL/NH7ZVh0QsITJcEyafQ6E6WGaZao0K1vTZROwgEdXaegmuRBbGEqzKJTzbqGHy2gaVFUFWwNqqA5cdBDXEs6LaRC3BFy7h2UYNVCs1LFROEnTJpRVrgrVVB3524FfX2rw2KJFxygvFUrWcONiqBIBFoEmFMyPeRjx4bhiYhAuYDGxeww5FbHfH3Nvlr1kF66oOgpKYOdX122yHnZXYpYjADkvdSyBcveFOey2TWRzcnj17xqaoBGiOhMkRtz6iSpUqUqlSJW99LH/+/N7uRDNxRQFrJjDbzkWXHbh2MIZVLY5KcR9v+fLl4/aDmarVcKlaX7iEZxsJVHsq/ompU6cKVpCxrah27dpxUatWLfGLmjVriitq1KghrqhevbrYolq1amKLqlWril/ky5dPPvnkE+nYsaO3cRvK1ZYQRrW7du3KbAtQrglTg9TXnL7y9i9XrpxMmTJF0LbMiXu2ov5P7dq1i8HVYMOqNg5ujx49YhuPNUitUBMqbn0E4E6ePFng23gjXILPjWPevHm9XfZUroYbVrVWuBqeeU2QHDEJYADupEmTBB8Q4ObmR/HixeXjjz/OpFwoNopqrXAJzjUSJkckKQTgTpw4Ubp27erBtR1bzS0/K1CggBVuGNUikQGsEy7BuUYC5Yh6FWe3sG6GY51dunTxdtxg100qAjt5dGBXj97Zgx0+3N3zwQcfCOP9998XRr169YSBBVMd2E6A7bS0hURUGwe3e/fusducYAnQHAFUB+AOHz78X5HMmPxat27tVQsaLsouXXrpular1grXhMjnGiSv0Rpk4CxanTp1BEeL0Mn/J8O230DPsuidhMTbGFutEDjzi2NY+PI2nKHj78MW/ODydTDidTLN0KBcgjNHQtQjpqwM/BM43MfMmhNHrUCCgvIIRcMF4MqVKwsO90X1WidcDc+8JkiO6Lcy8Cm3adPGm1PrWUpuuHbB7datmxQsWNAJV783vgbBxikXL0ZwtpEg9YgmCwIZFsdVmTySMTL5pGJkMvMbMaVHzUuV00agdj+v5R2QyRYAV4OzXRMmR/RbEdgYzSOiesRxUQaaOjw2qkceIdXHSHGclEdJ9XFSHCvlkVJ9rBTHS3m0VB8vxT43HjHl8VKOrmOmOG7Ko6b4eza4QaqNUy5qVEJzjYTJEQ0WBlqDDPReGWi6sPHCrhZbhnqfATcp6w6Xbh/q46SuUzi626Vbia7VXCY6s3+QSBLTlgC4KOdiLUfAJTS/kTDZubIBZWM7CCo7WwSLVQSuJKQSrK0JjiRsS3pR7YC2EAdXg7NdEyRHqpOjqVKXUk2oNrXq1qFeTWBvVrcQgxSr18QI1lStCTaKHZiqRbWRCS5mVoTmGglRjwSqVeoHlWABlFBNtaYCrF4TM8EmW7VWuBqa69oFUwM1PRVACZUWQLC4/RmESn9NlmKzG6wVrgZnuwZAMwCSgQTFIFAXVJdaCRZJy0xciVhBomBdXqtrWpsdAKwVrgnO9pwgORImMz+hQqGMMBZAqH5q5fajsB4bFazNZ8PUtExiBBsHt3PnzjEFEpxt1DBNoDaV8va3KZU2AKCESrWaiYtgeTYDpZat3GLyIlgmMHOhMas+66daK1wTnPmcqtQj1am9NEiphBqkVpsNcIdMTgIL5WrVxsFFL1ZDc11rmGGAsl4FUBfUILXSBrICNsxEIRGftYG1wjXBmc+pSD3idtfBzJ8oVKrVzwa4QZkzryAryApYTHV1EqO/cjQVi+fbt2/PXOdCuRqa61qD1D5KqFSoVql5+2ulurw1qlrpsahhdR2bTLBBPkuwcXCxL2D06NG+MWrUKAmKkSNHii1GjBghOrByYcawYcNEx9ChQ0UHvtZEx+DBg0XHoEGDxIyBAweKDtt5Omz3tAU6W36BWZgrsHTk9Rbgr7YFROw+wS9FWSLHeWFXBH2bHE+/Y2zSpEkseBqeJ+K5NmdbS3Otp2FdzWyFmu1MVwtSr7GZ1xBloUKFrPxgW861cHwFIb4hjw9+7w1HfuGFPu3OU5j67BqPAGBTNfb+Yhcl9qVxIx/3RmDVGet3WAlBsx59ZbQ+0UhCrwOzRk6zWQbCvmhPtB9aDX1bVxb0Z12isSxDnctaV9e39Fybz6JlijVE1yMUXALlSLAYXXB55ApwuVs9VXDp8aiXswIXFQOrBvZtUwYX3+dIoHq0waVqMfK7GQA42XAxuTGV64LL8o0VRpBy/3G4NrBQL+FqS9BwqVo/W8CKM20BloDGPWwBnTrawr8GLgzc7+tfwyY7V5LDz6MkOjPZIfG5Ep4t8TEJcjOJHvmVMUEjN51gxJYC7DhyPZyeiyqCX/maHv/++luTBep21+N/FhDhIjkANS8AAAAASUVORK5CYII=;" vertex="1" parent="1">
          <mxGeometry x="77.5" y="1000" width="125.78" height="120" as="geometry" />
        </mxCell>
        <mxCell id="IyRs7n4xf-Tw-_JyTJ-p-78" value="" style="shape=image;verticalLabelPosition=bottom;labelBackgroundColor=#ffffff;verticalAlign=top;aspect=fixed;imageAspect=0;image=data:image/png,iVBORw0KGgoAAAANSUhEUgAAAFMAAABTCAYAAADjsjsAAAAM5ElEQVR4Ae3dZ4/bOBPA8fto+YBBerv03nvvvffee+8NeREgL/jgxwfjU3ZlWfbuISetDRD0ShSl+XNmOBzKyV9p+Bk3An8N0tOPHz/SzZs30+bNm9P8+fPT5MmTc1m5cmUaWVatWpWqyurVq1NVWbNmTVKq2jhXdY+RzxR/z5gxIz+3esOGDenixYvp27dvgyDJ1/QF8/nz5/mms2fPziDPnDmT7t27l168eJFevnyZXr16lcvr16+T8ubNm/T27dtc3r17l96/f5/Lhw8fkvLx48f06dOnXD5//pyUL1++pK9fv+ZCsO/fv+fiexzXJtrH9fqKft3H/RT39xyKZ4pn9LyKZ3/06FE6d+5c2rFjR/r777/TwoUL0507d/qGWgumh6KFK1asSGfPnk3Pnj3LBVwP03SY5FDI9fTp03Tjxo2sNEuXLs3H61LtCVPHOj116lR68uRJvlnbYQJK1suXL2cFOnToUC2elTB1QiMfPHiQO59oMB8/fpyU/fv3p02bNqWfP39WQu0KE0SdRIdATlSYfOrJkyfzJFgFtBQmjdy3b192zEOYjzOHhw8fptOnT6f169d31c5RMK9cuZK2bNmSXGxEhjD/gYkJJevmQ3+DadY22Qh3hjCfdBSJUuGhmD/4TxPzyM9vMPnJ48ePdy4caub/J6CRMIEUj/769es3nh2YiFtpqGMUhjDLYWK0bdu2dOHChXKYAvLz588PYT59mmNpkUvMFyM1E8zr16+P0s6smZZq8+bNyyCHmlkP5v3793OohFd8MkwL/K1bt3aFee3atbwakNywOpgIK6Dbt2+nS5cu5VKmmWAePHgw7d69O1imDFPWRQyFcmimxnv27MlZocWLF6clS5Yk9YIFC3JoAGgb1+aCc4mOkJncMmOySrdu3eowwoepS/rEJ8OUgio2vHr1alq+fHnuULpq586deRQ4Xb5V+OR8ZIzakOhgcRs3bsyyLVu2LMfaoXlr165NixYtygolU0bhwCQ/9xhpuwxz6tSp+aRGGgClw7lz5+Yyffr0NGXKlKQWEjjuPI1uS9aIwoTMrI+Chcxz5szJ2kmJFG4vYNJcqT2fDBNdJ8Hcvn17TrTOnDkzj4TGIwszoN5gHjlypPEpOJbI4nBg0iPljb8x0U4iOmBigFsHJk2Mk9TZZBTZ8241LY3RbLqZW6wos2bN6in3unXrsuVKz7FirsHEPAqmdTnyJ06cSEaBBpYVZgCmRDH4YrImZ9op09GjR7O1Raa9TG7mfvjw4TwZWSlWwjSTWXeK7MFyQVnhmJ3nO6yaLK+aClNUAhxTB4u1lcnsmLmCW9NGerISJjhmb434j24m7jgN1s6DeKCmwuSiKASzZbImnW5ym5TEn1yCULISJkcqvrKMop2+m5BMNhxzqDlTEGPxFcKGsfhMG14eKkpMhJ4lcgRRO6aEf49rbJKNZUNt165dKUIestHCmIzU/CTQBw4cyIpDkcjfE+axY8dyzo6mCdppnpHwXe1mRkU4YDfP6qlfmB7CIPG9+o+QY9DaoBtseVgD3O/upJ1ISkEmqx4ygsec9Qke2TGhZOSOAe06AcXIa8AP0hqTEsEJqnNq7mFNPjoFsi5M/UmsCjWAHO8CqOf0XASvu9VrJWcCkvh1DVCWiQHRXGKrWGAPugGrDfPu3bt5RDhZ61ImBKAacHDdTOd1Ybo5f2z2p43iMzMjx+9+YbKD1EwuJk99u4cA3MDX2TePrV7Pw6StBkEls0JOpg8k5Sq6mp6aGT7KA9rzMOKctNpsz7T7WZszH6NMSCZpkAB03IsDxZcN4qWDqLVxr/i7rDbINIeQLIZ2upea/+/1EkLAdB8gLZs9p8EnM4gsikKE9dbWzIBZTA5T7UF3J4VSTJtwBsJIVwEMYDTFNdwB3+VNjjjXrQafiwLCPSlDPzA9m0JWYA1Gt6xRzwkI+TKYOh8EJucOiMDY6HrQbiCKx732Ytk2adKkXGgKl1Js0+070zZRRI7BTA0o0GWvxxQ1swizKjk8Js0cFCafwn+pmXYdjQxINJNvVepqZlxLm/bu3dsB2niYNImp8bd8GYFC2H+75keZu3uzDCbZaM3kMgjCb/G5TPffhhj9swCW4N4mP7660TABJAgT7dfEA8pYatpodWMyslnYeJgEEZMSbCxgBrnWRGoJaCJrDUwTwZ+CKYIwgbUCJq2IgHcQ7RrLNTRTrkHQ3QqYtEIOUFzWD5iyAL3sWFWfYEp0WyK2AqbQxLK0LkzAxLQgFOH5LryyCCger4Ip1hSw26ZtBUwmRqA6MK1EALN6oc1M1IrEcd8lG0ABWlbIDwZ6wdTegqEVMJmYGK8XTMAApMV++eC7Aqz36X0HE2zpMoUZ94IpPykX2RqYkbaqEtw562braisnEP3NpB3zXbqumAXqpZnaukac2wqYViCWdVZDvWA6T4tpIbOmVb67niY657hMfx2/CaZrbV23AibnL0lbB6ZELHjAqQFQg6cOc/edW+g1OGC6t/xkK2By/vxlHZjg0CTaBxzfGb7RpMNdqGlsLxPXF5gWC7YxWgPTRFEXZi9t6+c8mO5t76oVMG1ziBv/BEz3BVSyozUw+bdeYUw/Gle3LZjiVImWVsAU40l99Yoz6wLqpx2tNJD2/BsPk/MXtIsTaWadcKYfWL3aGkDZ/VbAZGY2tYQ8vqt7ARiv836PbgDdM8KzRieHaQVBaIi1dN3dxfEAChwT9wwG1Aqq8TCtpWW77f/QTi8djAesqj64E1rpnu5v3x7UxsPkL62NaSfhpMXsHFbBGMs5IA2a11sAlAJkEX8cpqWYUbWKkUozM1vKAeJVEmbkQRVmzJTCnGgBAcA0qxIKTCAJq914Tkj6cj/Pxk9aIXknyjunjvcD0wrMEtQzKyxLP7RdvKxQDhMsNjYOR72GHQ1dJN0Vb6vFy1BR276VdKgLE9B4mRR427Bgu4+HircoBq31o+gbRPcDkgy+14VJeWyzeHskZPXOktdzsPCOVDCqDdOrdYDZWTRK1sOOyTV6y8IbGs7zR3U0k0DMLkIl19FQUAkf/+rLoLWZW19q63ba5M0496wLU3syKTYAycoq1RIt+iS3UK+2ZnoYs58R6fY6sleVjZ4bG6FeZh4wmZ/vBshIS40ZKA871qIvfTJJLgTIujBZRLylV/UatjfisOHqamkmbTQKQHq4ssIE/EBArpIf7QcmoKGBXkyQHQKUBkRxLEpAjr/V0U7tWkVf4OnbPfqBSQPJ7KcrYdJlcgONj3NcQqXPtFlFI5m0l+HLOnQMTD9tMULaDwqTqZuUlPhHn0wkTF9hujGzh0twXJtoH9frKwapX5hASobEL9G6yU1m6Tw7rva1KmHyZXyChmCawcuKm0+bNi3nF5mHQaiazYtmXtTM/wpMymGbxE9TaF6ZzI75oYT8qpmeO6mEqUOmKwxgxkagrADIJLwMyofwH02Gyf+bgEA1D5TJ7BgmEia02IsVlTBpmI6FGUZCxzSUKQPoZiD6W4c6077pZi5WNPHyx7TTROMXF2Rm8hjQWPJjE/vwpTBdTLtM+RraOnCRDjln2hdmz58CaAa0rQBq02EyXSGfuBlYZmzVRmayOq+202lRALIJrxSmiwImE6eVZkOaakSMFi2llW4WAbJ28b3JZg4i9wYOJRHw+9k4mSmUYtHB31MeUUSERhTN9Z0VkAuBi+ieutNQjUwewgC+ws1ANjomKqZBK5uumeQkP7+oBg1UMrNSqzXHWKWsfTFoZ9Uiig5MI2DyCZi0zUjQPIlVs7xjIBsZowiwh2gLTLLQNuatkJUp48DVAU0jg5G2GLDq+PeN8o/3rUiCuMbAKb4LmoUBNsZ0arQkOfpJdPzXQyMgFTLRSFvKZAUVF2t8kUswwQVMiwWKFZ8MkxqbtYJ6wGTOMj6KTI/iZm2HSUayhuw4BJNgBCYFMynFJ8P0h+iff9A4LhzC7P4vboEpiPfvL8enA5PPFBIMYf7zC7UqzRRKcQHFTwcmJyoEiBiTdg41s1wzTUx+h17USlA7MP1hduJQh2Ze7TPlOy0nR35+g+mkgNXsPtTM8gnIDoNAPcKhItBRMDUSU/GhQzP/3czt9ci2SweWfUbB1IgvcJEVTjjhiR4aAWlpbQXY7VMKU2P0qbOVwESPMykV5aoCiVlXmE4yedsSQgBx1UQM2u1IUqpupl3U0kqY0dCaVNhkWcmPToQVkCWk8Ec8WTbZBJtiXQumC/xj7zoGlbZas9PUNiU6zNSiGTKq62jjQDDjouJ/XyNjwikrVk/iL0WqKgoziUKzi0UyIYq4LYpBi2LTTom/1dFOHderi33HPdXxLOp4RjX3Fc9PFntbgPYLMdjU1sy4oFhT/8i4WPCbrJpU7BTE81f9NwtFmau+jwlmVccT8dz/AIaqB+8OzXNMAAAAAElFTkSuQmCC;" vertex="1" parent="1">
          <mxGeometry x="400" y="467" width="103" height="103" as="geometry" />
        </mxCell>
        <mxCell id="IyRs7n4xf-Tw-_JyTJ-p-81" value="" style="pointerEvents=1;shadow=0;dashed=0;html=1;strokeColor=none;fillColor=#505050;labelPosition=center;verticalLabelPosition=bottom;verticalAlign=top;outlineConnect=0;align=center;shape=mxgraph.office.devices.workstation;" vertex="1" parent="1">
          <mxGeometry x="168.5" y="268" width="53" height="56" as="geometry" />
        </mxCell>
        <mxCell id="IyRs7n4xf-Tw-_JyTJ-p-82" value="" style="shape=mxgraph.signs.tech.computer;html=1;fillColor=#000000;strokeColor=none;verticalLabelPosition=bottom;verticalAlign=top;align=center;" vertex="1" parent="1">
          <mxGeometry x="656" y="369" width="60" height="60" as="geometry" />
        </mxCell>
      </root>
    </mxGraphModel>
  </diagram>
</mxfile>
